<svg width="28" height="25" viewBox="0 0 28 25" fill="none" xmlns="http://www.w3.org/2000/svg">
<path d="M9.6001 5.47504C10.4095 0.0300912 18.2476 0.0532907 19.2001 5.47504M24.3858 7.87554L26.3669 20.614C26.4295 21.0172 26.4034 21.429 26.2902 21.8212C26.1771 22.2135 25.9796 22.5769 25.7113 22.8866C25.4431 23.1963 25.1103 23.445 24.7359 23.6156C24.3614 23.7862 23.9542 23.8747 23.5419 23.875H4.46113C4.04866 23.8751 3.64107 23.7869 3.26628 23.6165C2.89149 23.446 2.55838 23.1974 2.28979 22.8877C2.02119 22.5779 1.82346 22.2144 1.71015 21.8219C1.59685 21.4295 1.57064 21.0174 1.63334 20.614L3.61437 7.87554C3.71828 7.20689 4.06075 6.59719 4.57974 6.15684C5.09874 5.71649 5.75994 5.47462 6.44359 5.47504H21.5595C22.2429 5.47496 22.9037 5.71698 23.4224 6.1573C23.9411 6.59762 24.2834 7.20714 24.3873 7.87554H24.3858Z" stroke="black" stroke-width="1.5" stroke-linejoin="round"/>
</svg>
